<svg xmlns="http://www.w3.org/2000/svg" width="16" height="16" viewBox="0 0 16 16" fill="none">
  <path d="M13.517 7.86828L13.5167 7.86858L9.97904 11.4163L9.97893 11.4164L9.16955 12.2276C8.5834 12.815 7.63164 12.8149 7.04563 12.2273L3.53248 8.70472L3.53217 8.70441L2.69965 7.86818L2.69915 7.86768C2.01612 7.18354 1.62498 6.2595 1.60891 5.29093C1.59285 4.32236 1.95312 3.38575 2.61311 2.67918C3.27307 1.97264 4.1809 1.55152 5.14448 1.50443C6.10813 1.45733 7.05308 1.78799 7.77826 2.42669C7.96716 2.59307 8.2503 2.59307 8.4392 2.42669C9.1645 1.78789 10.1089 1.45728 11.0725 1.50443C12.0362 1.55158 12.944 1.97281 13.604 2.67948C14.2639 3.38619 14.6241 4.32292 14.6079 5.29156C14.5916 6.2602 14.2003 7.18424 13.517 7.86828Z" stroke="#6612ED" stroke-linejoin="round"/>
</svg>