<svg width="160" height="33" viewBox="0 0 160 33" fill="none" xmlns="http://www.w3.org/2000/svg">
<path d="M0.5 12.7979L14.0356 18.1812L20.376 15.6177L13.8219 12.7979L14.2493 12.5415L21.0884 15.2759L27.5 12.7979L14.0356 7.5L0.5 12.7979Z" fill="#6612ED"/>
<path d="M8.33641 17.1558V21.7701C10.0937 23.6215 14.8335 26.2135 19.7348 21.7701V17.1558L14.0356 19.2921L8.33641 17.1558Z" fill="#6612ED"/>
<path d="M20.5897 15.6177V17.9249C20.3285 18.1527 19.9628 18.7794 20.5897 19.463L20.4472 25.2735C20.6135 25.4444 21.0172 25.6837 21.3021 25.2735L21.2309 19.463C21.4446 19.2066 21.7296 18.5401 21.1596 17.9249L21.0884 15.3614L20.5897 15.6177Z" fill="#6612ED"/>
<path d="M34.718 16C34.454 16 34.232 15.91 34.052 15.73C33.884 15.55 33.8 15.328 33.8 15.064V2.878C33.8 2.614 33.89 2.392 34.07 2.212C34.25 2.032 34.466 1.942 34.718 1.942C34.982 1.942 35.204 2.032 35.384 2.212C35.564 2.392 35.654 2.614 35.654 2.878V14.128H42.17C42.434 14.128 42.656 14.218 42.836 14.398C43.016 14.578 43.106 14.8 43.106 15.064C43.106 15.328 43.016 15.55 42.836 15.73C42.656 15.91 42.434 16 42.17 16H34.718ZM46.2668 16C46.0028 16 45.7808 15.916 45.6008 15.748C45.4328 15.568 45.3488 15.346 45.3488 15.082V7.072C45.3488 6.796 45.4328 6.574 45.6008 6.406C45.7808 6.238 46.0028 6.154 46.2668 6.154C46.5428 6.154 46.7648 6.238 46.9328 6.406C47.1008 6.574 47.1848 6.796 47.1848 7.072V15.082C47.1848 15.346 47.1008 15.568 46.9328 15.748C46.7648 15.916 46.5428 16 46.2668 16ZM46.2668 4.552C45.9428 4.552 45.6608 4.438 45.4208 4.21C45.1928 3.97 45.0788 3.688 45.0788 3.364C45.0788 3.04 45.1928 2.764 45.4208 2.536C45.6608 2.296 45.9428 2.176 46.2668 2.176C46.5908 2.176 46.8668 2.296 47.0948 2.536C47.3348 2.764 47.4548 3.04 47.4548 3.364C47.4548 3.688 47.3348 3.97 47.0948 4.21C46.8668 4.438 46.5908 4.552 46.2668 4.552ZM58.9165 16.018C58.6525 16.018 58.4305 15.934 58.2505 15.766C58.0825 15.586 57.9985 15.364 57.9985 15.1V10.672C57.9985 9.988 57.8725 9.43 57.6205 8.998C57.3685 8.566 57.0265 8.248 56.5945 8.044C56.1745 7.828 55.6885 7.72 55.1365 7.72C54.6325 7.72 54.1765 7.822 53.7685 8.026C53.3605 8.23 53.0365 8.506 52.7965 8.854C52.5565 9.19 52.4365 9.58 52.4365 10.024H51.3025C51.3025 9.268 51.4825 8.596 51.8425 8.008C52.2145 7.408 52.7185 6.934 53.3545 6.586C53.9905 6.238 54.7045 6.064 55.4965 6.064C56.3245 6.064 57.0625 6.244 57.7105 6.604C58.3705 6.952 58.8865 7.468 59.2585 8.152C59.6425 8.836 59.8345 9.676 59.8345 10.672V15.1C59.8345 15.364 59.7445 15.586 59.5645 15.766C59.3965 15.934 59.1805 16.018 58.9165 16.018ZM51.5185 16.018C51.2545 16.018 51.0325 15.934 50.8525 15.766C50.6845 15.586 50.6005 15.364 50.6005 15.1V7.072C50.6005 6.796 50.6845 6.574 50.8525 6.406C51.0325 6.238 51.2545 6.154 51.5185 6.154C51.7945 6.154 52.0165 6.238 52.1845 6.406C52.3525 6.574 52.4365 6.796 52.4365 7.072V15.1C52.4365 15.364 52.3525 15.586 52.1845 15.766C52.0165 15.934 51.7945 16.018 51.5185 16.018ZM66.974 16.072C66.074 16.072 65.276 15.862 64.58 15.442C63.896 15.01 63.356 14.422 62.96 13.678C62.564 12.922 62.366 12.058 62.366 11.086C62.366 10.102 62.576 9.238 62.996 8.494C63.428 7.738 64.016 7.15 64.76 6.73C65.504 6.298 66.362 6.082 67.334 6.082C68.294 6.082 69.146 6.298 69.89 6.73C70.634 7.15 71.216 7.738 71.636 8.494C72.068 9.238 72.284 10.102 72.284 11.086H71.222C71.222 12.058 71.036 12.922 70.664 13.678C70.304 14.422 69.806 15.01 69.17 15.442C68.534 15.862 67.802 16.072 66.974 16.072ZM67.298 20.086C66.446 20.086 65.648 19.918 64.904 19.582C64.16 19.246 63.53 18.754 63.014 18.106C62.858 17.902 62.798 17.692 62.834 17.476C62.882 17.26 63.002 17.086 63.194 16.954C63.41 16.81 63.632 16.762 63.86 16.81C64.1 16.858 64.292 16.978 64.436 17.17C64.76 17.578 65.168 17.896 65.66 18.124C66.152 18.352 66.71 18.466 67.334 18.466C67.91 18.466 68.438 18.328 68.918 18.052C69.41 17.776 69.8 17.368 70.088 16.828C70.376 16.288 70.52 15.628 70.52 14.848V12.292L71.114 10.708L72.284 11.086V14.974C72.284 15.922 72.074 16.78 71.654 17.548C71.234 18.328 70.646 18.946 69.89 19.402C69.146 19.858 68.282 20.086 67.298 20.086ZM67.334 14.452C67.958 14.452 68.51 14.308 68.99 14.02C69.47 13.732 69.842 13.336 70.106 12.832C70.382 12.328 70.52 11.746 70.52 11.086C70.52 10.426 70.382 9.844 70.106 9.34C69.842 8.824 69.47 8.422 68.99 8.134C68.51 7.846 67.958 7.702 67.334 7.702C66.71 7.702 66.158 7.846 65.678 8.134C65.198 8.422 64.82 8.824 64.544 9.34C64.268 9.844 64.13 10.426 64.13 11.086C64.13 11.746 64.268 12.328 64.544 12.832C64.82 13.336 65.198 13.732 65.678 14.02C66.158 14.308 66.71 14.452 67.334 14.452ZM79.1565 16.09C78.3285 16.09 77.5845 15.916 76.9245 15.568C76.2765 15.208 75.7605 14.686 75.3765 14.002C75.0045 13.318 74.8185 12.478 74.8185 11.482V7.054C74.8185 6.79 74.9025 6.574 75.0705 6.406C75.2505 6.226 75.4725 6.136 75.7365 6.136C76.0005 6.136 76.2165 6.226 76.3845 6.406C76.5645 6.574 76.6545 6.79 76.6545 7.054V11.482C76.6545 12.154 76.7805 12.712 77.0325 13.156C77.2845 13.588 77.6265 13.912 78.0585 14.128C78.4905 14.332 78.9765 14.434 79.5165 14.434C80.0325 14.434 80.4885 14.332 80.8845 14.128C81.2925 13.924 81.6165 13.648 81.8565 13.3C82.0965 12.952 82.2165 12.562 82.2165 12.13H83.3505C83.3505 12.874 83.1645 13.546 82.7925 14.146C82.4325 14.746 81.9345 15.22 81.2985 15.568C80.6745 15.916 79.9605 16.09 79.1565 16.09ZM83.1345 16C82.8705 16 82.6485 15.916 82.4685 15.748C82.3005 15.568 82.2165 15.346 82.2165 15.082V7.054C82.2165 6.778 82.3005 6.556 82.4685 6.388C82.6485 6.22 82.8705 6.136 83.1345 6.136C83.4105 6.136 83.6325 6.22 83.8005 6.388C83.9685 6.556 84.0525 6.778 84.0525 7.054V15.082C84.0525 15.346 83.9685 15.568 83.8005 15.748C83.6325 15.916 83.4105 16 83.1345 16ZM91.39 16.072C90.514 16.072 89.728 15.856 89.032 15.424C88.336 14.98 87.784 14.386 87.376 13.642C86.98 12.886 86.782 12.034 86.782 11.086C86.782 10.138 86.998 9.286 87.43 8.53C87.874 7.774 88.468 7.18 89.212 6.748C89.968 6.304 90.814 6.082 91.75 6.082C92.686 6.082 93.526 6.304 94.27 6.748C95.014 7.18 95.602 7.774 96.034 8.53C96.478 9.286 96.7 10.138 96.7 11.086H95.998C95.998 12.034 95.794 12.886 95.386 13.642C94.99 14.386 94.444 14.98 93.748 15.424C93.052 15.856 92.266 16.072 91.39 16.072ZM91.75 14.452C92.362 14.452 92.908 14.308 93.388 14.02C93.868 13.72 94.246 13.318 94.522 12.814C94.798 12.298 94.936 11.722 94.936 11.086C94.936 10.438 94.798 9.862 94.522 9.358C94.246 8.842 93.868 8.44 93.388 8.152C92.908 7.852 92.362 7.702 91.75 7.702C91.15 7.702 90.604 7.852 90.112 8.152C89.632 8.44 89.248 8.842 88.96 9.358C88.684 9.862 88.546 10.438 88.546 11.086C88.546 11.722 88.684 12.298 88.96 12.814C89.248 13.318 89.632 13.72 90.112 14.02C90.604 14.308 91.15 14.452 91.75 14.452ZM95.782 16.018C95.518 16.018 95.296 15.934 95.116 15.766C94.948 15.586 94.864 15.364 94.864 15.1V12.346L95.206 10.438L96.7 11.086V15.1C96.7 15.364 96.61 15.586 96.43 15.766C96.262 15.934 96.046 16.018 95.782 16.018ZM99.4145 16C99.1505 16 98.9285 15.91 98.7485 15.73C98.5685 15.55 98.4785 15.328 98.4785 15.064V2.878C98.4785 2.602 98.5685 2.38 98.7485 2.212C98.9285 2.032 99.1505 1.942 99.4145 1.942H107.551C107.827 1.942 108.049 2.026 108.217 2.194C108.385 2.35 108.469 2.56 108.469 2.824C108.469 3.076 108.385 3.28 108.217 3.436C108.049 3.592 107.827 3.67 107.551 3.67H100.351V8.044H105.517C105.793 8.044 106.015 8.128 106.183 8.296C106.351 8.452 106.435 8.656 106.435 8.908C106.435 9.16 106.351 9.37 106.183 9.538C106.015 9.694 105.793 9.772 105.517 9.772H100.351V15.064C100.351 15.328 100.261 15.55 100.081 15.73C99.9005 15.91 99.6785 16 99.4145 16ZM113.023 16C112.495 16 112.027 15.856 111.619 15.568C111.211 15.28 110.893 14.89 110.665 14.398C110.437 13.894 110.323 13.318 110.323 12.67V2.842C110.323 2.578 110.407 2.362 110.575 2.194C110.743 2.026 110.959 1.942 111.223 1.942C111.487 1.942 111.703 2.026 111.871 2.194C112.039 2.362 112.123 2.578 112.123 2.842V12.67C112.123 13.114 112.207 13.48 112.375 13.768C112.543 14.056 112.759 14.2 113.023 14.2H113.473C113.713 14.2 113.905 14.284 114.049 14.452C114.205 14.62 114.283 14.836 114.283 15.1C114.283 15.364 114.169 15.58 113.941 15.748C113.713 15.916 113.419 16 113.059 16H113.023ZM117.177 16C116.913 16 116.691 15.916 116.511 15.748C116.343 15.568 116.259 15.346 116.259 15.082V7.072C116.259 6.796 116.343 6.574 116.511 6.406C116.691 6.238 116.913 6.154 117.177 6.154C117.453 6.154 117.675 6.238 117.843 6.406C118.011 6.574 118.095 6.796 118.095 7.072V15.082C118.095 15.346 118.011 15.568 117.843 15.748C117.675 15.916 117.453 16 117.177 16ZM117.177 4.552C116.853 4.552 116.571 4.438 116.331 4.21C116.103 3.97 115.989 3.688 115.989 3.364C115.989 3.04 116.103 2.764 116.331 2.536C116.571 2.296 116.853 2.176 117.177 2.176C117.501 2.176 117.777 2.296 118.005 2.536C118.245 2.764 118.365 3.04 118.365 3.364C118.365 3.688 118.245 3.97 118.005 4.21C117.777 4.438 117.501 4.552 117.177 4.552ZM128.423 16C128.303 16 128.189 15.982 128.081 15.946C127.973 15.91 127.871 15.832 127.775 15.712L124.625 11.932L123.977 11.284L120.845 7.576C120.689 7.384 120.605 7.18 120.593 6.964C120.581 6.736 120.641 6.544 120.773 6.388C120.905 6.232 121.103 6.154 121.367 6.154C121.655 6.154 121.883 6.256 122.051 6.46L125.129 10.132L125.597 10.564L128.981 14.614C129.161 14.83 129.245 15.046 129.233 15.262C129.233 15.466 129.155 15.64 128.999 15.784C128.855 15.928 128.663 16 128.423 16ZM121.547 16C121.307 16 121.115 15.928 120.971 15.784C120.839 15.628 120.773 15.442 120.773 15.226C120.773 15.01 120.857 14.794 121.025 14.578L124.085 10.744L125.057 12.112L122.195 15.712C122.015 15.904 121.799 16 121.547 16ZM125.993 11.374L124.751 10.312L127.649 6.46C127.745 6.34 127.847 6.262 127.955 6.226C128.063 6.178 128.183 6.154 128.315 6.154C128.579 6.154 128.777 6.238 128.909 6.406C129.041 6.562 129.101 6.754 129.089 6.982C129.089 7.21 129.005 7.432 128.837 7.648L125.993 11.374Z" fill="#131315"/>
<path d="M35.204 29C35.092 29 34.992 28.964 34.904 28.892C34.824 28.82 34.768 28.728 34.736 28.616L32.276 20.3C32.22 20.108 32.228 19.948 32.3 19.82C32.38 19.692 32.504 19.628 32.672 19.628C32.768 19.628 32.856 19.656 32.936 19.712C33.024 19.76 33.088 19.852 33.128 19.988L35.348 27.716H35.072L37.172 20.192C37.196 20.104 37.248 20.032 37.328 19.976C37.416 19.92 37.512 19.892 37.616 19.892C37.712 19.892 37.804 19.92 37.892 19.976C37.98 20.024 38.036 20.1 38.06 20.204L40.172 27.716H39.896L42.128 19.94C42.184 19.732 42.336 19.628 42.584 19.628C42.752 19.628 42.868 19.696 42.932 19.832C42.996 19.96 43.004 20.116 42.956 20.3L40.508 28.604C40.468 28.732 40.404 28.832 40.316 28.904C40.236 28.968 40.14 29 40.028 29C39.916 29 39.816 28.964 39.728 28.892C39.648 28.82 39.592 28.728 39.56 28.616L37.472 20.996H37.76L35.684 28.604C35.644 28.724 35.58 28.82 35.492 28.892C35.412 28.964 35.316 29 35.204 29ZM45.9095 29.06C45.2935 29.06 44.7415 28.916 44.2535 28.628C43.7655 28.332 43.3775 27.932 43.0895 27.428C42.8095 26.924 42.6695 26.356 42.6695 25.724C42.6695 25.084 42.8135 24.512 43.1015 24.008C43.3975 23.504 43.7975 23.108 44.3015 22.82C44.8055 22.524 45.3735 22.376 46.0055 22.376C46.6375 22.376 47.2015 22.524 47.6975 22.82C48.2015 23.108 48.5975 23.504 48.8855 24.008C49.1815 24.512 49.3335 25.084 49.3415 25.724L48.9695 26.012C48.9695 26.588 48.8335 27.108 48.5615 27.572C48.2975 28.028 47.9335 28.392 47.4695 28.664C47.0135 28.928 46.4935 29.06 45.9095 29.06ZM46.0055 28.22C46.4695 28.22 46.8815 28.112 47.2415 27.896C47.6095 27.68 47.8975 27.384 48.1055 27.008C48.3215 26.624 48.4295 26.196 48.4295 25.724C48.4295 25.244 48.3215 24.816 48.1055 24.44C47.8975 24.064 47.6095 23.768 47.2415 23.552C46.8815 23.328 46.4695 23.216 46.0055 23.216C45.5495 23.216 45.1375 23.328 44.7695 23.552C44.4015 23.768 44.1095 24.064 43.8935 24.44C43.6775 24.816 43.5695 25.244 43.5695 25.724C43.5695 26.196 43.6775 26.624 43.8935 27.008C44.1095 27.384 44.4015 27.68 44.7695 27.896C45.1375 28.112 45.5495 28.22 46.0055 28.22ZM48.8735 29C48.7375 29 48.6255 28.96 48.5375 28.88C48.4495 28.792 48.4055 28.68 48.4055 28.544V26.492L48.6335 25.544L49.3415 25.724V28.544C49.3415 28.68 49.2975 28.792 49.2095 28.88C49.1215 28.96 49.0095 29 48.8735 29ZM53.7066 29C53.2826 29 52.9026 28.9 52.5666 28.7C52.2386 28.5 51.9786 28.228 51.7866 27.884C51.5946 27.532 51.4986 27.132 51.4986 26.684V20.816C51.4986 20.68 51.5386 20.568 51.6186 20.48C51.7066 20.392 51.8186 20.348 51.9546 20.348C52.0906 20.348 52.2026 20.392 52.2906 20.48C52.3786 20.568 52.4226 20.68 52.4226 20.816V26.684C52.4226 27.092 52.5426 27.428 52.7826 27.692C53.0226 27.948 53.3306 28.076 53.7066 28.076H54.0306C54.1586 28.076 54.2626 28.12 54.3426 28.208C54.4226 28.296 54.4626 28.408 54.4626 28.544C54.4626 28.68 54.4146 28.792 54.3186 28.88C54.2226 28.96 54.1026 29 53.9586 29H53.7066ZM50.7186 23.48C50.5986 23.48 50.4986 23.444 50.4186 23.372C50.3386 23.292 50.2986 23.196 50.2986 23.084C50.2986 22.964 50.3386 22.868 50.4186 22.796C50.4986 22.716 50.5986 22.676 50.7186 22.676H53.7786C53.8986 22.676 53.9986 22.716 54.0786 22.796C54.1586 22.868 54.1986 22.964 54.1986 23.084C54.1986 23.196 54.1586 23.292 54.0786 23.372C53.9986 23.444 53.8986 23.48 53.7786 23.48H50.7186ZM58.8947 29.06C58.2627 29.06 57.6987 28.916 57.2027 28.628C56.7147 28.332 56.3267 27.932 56.0387 27.428C55.7587 26.924 55.6187 26.356 55.6187 25.724C55.6187 25.084 55.7547 24.512 56.0267 24.008C56.2987 23.504 56.6707 23.108 57.1427 22.82C57.6147 22.524 58.1587 22.376 58.7747 22.376C59.2627 22.376 59.7107 22.472 60.1187 22.664C60.5347 22.856 60.8987 23.144 61.2107 23.528C61.2987 23.624 61.3307 23.728 61.3067 23.84C61.2827 23.944 61.2147 24.036 61.1027 24.116C61.0147 24.18 60.9147 24.204 60.8027 24.188C60.6987 24.164 60.6067 24.104 60.5267 24.008C60.0627 23.48 59.4787 23.216 58.7747 23.216C58.3267 23.216 57.9307 23.324 57.5867 23.54C57.2507 23.756 56.9867 24.052 56.7947 24.428C56.6107 24.804 56.5187 25.236 56.5187 25.724C56.5187 26.204 56.6187 26.632 56.8187 27.008C57.0187 27.384 57.2987 27.68 57.6587 27.896C58.0187 28.112 58.4307 28.22 58.8947 28.22C59.2067 28.22 59.4907 28.18 59.7467 28.1C60.0107 28.012 60.2427 27.88 60.4427 27.704C60.5387 27.624 60.6387 27.58 60.7427 27.572C60.8467 27.564 60.9427 27.596 61.0307 27.668C61.1267 27.756 61.1787 27.856 61.1867 27.968C61.2027 28.08 61.1667 28.176 61.0787 28.256C60.4947 28.792 59.7667 29.06 58.8947 29.06ZM63.5714 26.324C63.4274 26.324 63.3114 26.28 63.2234 26.192C63.1434 26.104 63.1034 25.992 63.1034 25.856V20.096C63.1034 19.952 63.1434 19.84 63.2234 19.76C63.3114 19.672 63.4274 19.628 63.5714 19.628C63.7074 19.628 63.8154 19.672 63.8954 19.76C63.9834 19.84 64.0274 19.952 64.0274 20.096V25.856C64.0274 25.992 63.9834 26.104 63.8954 26.192C63.8154 26.28 63.7074 26.324 63.5714 26.324ZM68.7314 29C68.5954 29 68.4834 28.956 68.3954 28.868C68.3074 28.78 68.2634 28.672 68.2634 28.544V25.424C68.2634 24.928 68.1674 24.52 67.9754 24.2C67.7914 23.88 67.5354 23.64 67.2074 23.48C66.8874 23.32 66.5234 23.24 66.1154 23.24C65.7234 23.24 65.3674 23.316 65.0474 23.468C64.7354 23.62 64.4874 23.828 64.3034 24.092C64.1194 24.356 64.0274 24.656 64.0274 24.992H63.3674C63.3834 24.488 63.5194 24.04 63.7754 23.648C64.0314 23.248 64.3714 22.936 64.7954 22.712C65.2194 22.48 65.6914 22.364 66.2114 22.364C66.7794 22.364 67.2874 22.484 67.7354 22.724C68.1834 22.956 68.5354 23.3 68.7914 23.756C69.0554 24.212 69.1874 24.768 69.1874 25.424V28.544C69.1874 28.672 69.1434 28.78 69.0554 28.868C68.9674 28.956 68.8594 29 68.7314 29ZM63.5714 29C63.4274 29 63.3114 28.96 63.2234 28.88C63.1434 28.792 63.1034 28.68 63.1034 28.544V22.904C63.1034 22.76 63.1434 22.648 63.2234 22.568C63.3114 22.48 63.4274 22.436 63.5714 22.436C63.7074 22.436 63.8154 22.48 63.8954 22.568C63.9834 22.648 64.0274 22.76 64.0274 22.904V28.544C64.0274 28.68 63.9834 28.792 63.8954 28.88C63.8154 28.96 63.7074 29 63.5714 29ZM71.4405 29.192C71.2485 29.192 71.0845 29.124 70.9485 28.988C70.8125 28.852 70.7445 28.688 70.7445 28.496C70.7445 28.296 70.8125 28.128 70.9485 27.992C71.0925 27.856 71.2565 27.788 71.4405 27.788C71.6325 27.788 71.7965 27.86 71.9325 28.004C72.0685 28.14 72.1365 28.304 72.1365 28.496C72.1365 28.68 72.0685 28.844 71.9325 28.988C71.8045 29.124 71.6405 29.192 71.4405 29.192ZM77.918 29C77.79 29 77.678 28.956 77.582 28.868C77.494 28.78 77.45 28.668 77.45 28.532V20.096C77.45 19.968 77.494 19.86 77.582 19.772C77.678 19.676 77.79 19.628 77.918 19.628C78.046 19.628 78.154 19.676 78.242 19.772C78.338 19.86 78.386 19.968 78.386 20.096V28.112H83.078C83.206 28.112 83.314 28.156 83.402 28.244C83.498 28.324 83.546 28.428 83.546 28.556C83.546 28.684 83.498 28.792 83.402 28.88C83.314 28.96 83.206 29 83.078 29H77.918ZM87.8998 29.06C87.2518 29.06 86.6758 28.92 86.1718 28.64C85.6758 28.352 85.2837 27.956 84.9958 27.452C84.7158 26.948 84.5758 26.372 84.5758 25.724C84.5758 25.068 84.7078 24.492 84.9718 23.996C85.2438 23.492 85.6158 23.096 86.0878 22.808C86.5598 22.52 87.1038 22.376 87.7198 22.376C88.3278 22.376 88.8558 22.516 89.3038 22.796C89.7598 23.068 90.1118 23.448 90.3598 23.936C90.6078 24.424 90.7318 24.98 90.7318 25.604C90.7318 25.732 90.6918 25.836 90.6118 25.916C90.5318 25.988 90.4278 26.024 90.2998 26.024H85.1998V25.256H90.3958L89.8798 25.628C89.8878 25.164 89.8038 24.748 89.6278 24.38C89.4518 24.012 89.1998 23.724 88.8718 23.516C88.5518 23.308 88.1678 23.204 87.7198 23.204C87.2638 23.204 86.8638 23.312 86.5198 23.528C86.1758 23.744 85.9078 24.044 85.7158 24.428C85.5318 24.804 85.4398 25.236 85.4398 25.724C85.4398 26.212 85.5438 26.644 85.7518 27.02C85.9678 27.396 86.2598 27.692 86.6278 27.908C86.9958 28.124 87.4198 28.232 87.8998 28.232C88.1878 28.232 88.4758 28.184 88.7638 28.088C89.0598 27.984 89.2958 27.856 89.4718 27.704C89.5598 27.632 89.6598 27.596 89.7718 27.596C89.8838 27.588 89.9798 27.616 90.0598 27.68C90.1638 27.776 90.2158 27.88 90.2158 27.992C90.2238 28.104 90.1798 28.2 90.0838 28.28C89.8198 28.504 89.4838 28.692 89.0758 28.844C88.6678 28.988 88.2758 29.06 87.8998 29.06ZM94.9525 29.06C94.3365 29.06 93.7845 28.916 93.2965 28.628C92.8085 28.332 92.4205 27.932 92.1325 27.428C91.8525 26.924 91.7125 26.356 91.7125 25.724C91.7125 25.084 91.8565 24.512 92.1445 24.008C92.4405 23.504 92.8405 23.108 93.3445 22.82C93.8485 22.524 94.4165 22.376 95.0485 22.376C95.6805 22.376 96.2445 22.524 96.7405 22.82C97.2445 23.108 97.6405 23.504 97.9285 24.008C98.2245 24.512 98.3765 25.084 98.3845 25.724L98.0125 26.012C98.0125 26.588 97.8765 27.108 97.6045 27.572C97.3405 28.028 96.9765 28.392 96.5125 28.664C96.0565 28.928 95.5365 29.06 94.9525 29.06ZM95.0485 28.22C95.5125 28.22 95.9245 28.112 96.2845 27.896C96.6525 27.68 96.9405 27.384 97.1485 27.008C97.3645 26.624 97.4725 26.196 97.4725 25.724C97.4725 25.244 97.3645 24.816 97.1485 24.44C96.9405 24.064 96.6525 23.768 96.2845 23.552C95.9245 23.328 95.5125 23.216 95.0485 23.216C94.5925 23.216 94.1805 23.328 93.8125 23.552C93.4445 23.768 93.1525 24.064 92.9365 24.44C92.7205 24.816 92.6125 25.244 92.6125 25.724C92.6125 26.196 92.7205 26.624 92.9365 27.008C93.1525 27.384 93.4445 27.68 93.8125 27.896C94.1805 28.112 94.5925 28.22 95.0485 28.22ZM97.9165 29C97.7805 29 97.6685 28.96 97.5805 28.88C97.4925 28.792 97.4485 28.68 97.4485 28.544V26.492L97.6765 25.544L98.3845 25.724V28.544C98.3845 28.68 98.3405 28.792 98.2525 28.88C98.1645 28.96 98.0525 29 97.9165 29ZM100.566 24.956C100.59 24.46 100.718 24.016 100.95 23.624C101.19 23.232 101.498 22.924 101.874 22.7C102.258 22.476 102.682 22.364 103.146 22.364C103.514 22.364 103.798 22.416 103.998 22.52C104.198 22.624 104.274 22.776 104.226 22.976C104.194 23.096 104.138 23.176 104.058 23.216C103.986 23.256 103.894 23.272 103.782 23.264C103.678 23.256 103.558 23.248 103.422 23.24C102.974 23.2 102.574 23.248 102.222 23.384C101.878 23.512 101.602 23.712 101.394 23.984C101.194 24.256 101.094 24.58 101.094 24.956H100.566ZM100.638 29C100.494 29 100.382 28.96 100.302 28.88C100.222 28.8 100.182 28.688 100.182 28.544V22.892C100.182 22.748 100.222 22.636 100.302 22.556C100.382 22.476 100.494 22.436 100.638 22.436C100.782 22.436 100.894 22.476 100.974 22.556C101.054 22.636 101.094 22.748 101.094 22.892V28.544C101.094 28.688 101.054 28.8 100.974 28.88C100.894 28.96 100.782 29 100.638 29ZM111.306 29C111.17 29 111.058 28.956 110.97 28.868C110.882 28.78 110.838 28.672 110.838 28.544V25.424C110.838 24.928 110.742 24.52 110.55 24.2C110.366 23.88 110.11 23.64 109.782 23.48C109.462 23.32 109.098 23.24 108.69 23.24C108.298 23.24 107.942 23.316 107.622 23.468C107.31 23.62 107.062 23.828 106.878 24.092C106.694 24.356 106.602 24.656 106.602 24.992H105.942C105.958 24.488 106.094 24.04 106.35 23.648C106.606 23.248 106.946 22.936 107.37 22.712C107.794 22.48 108.266 22.364 108.786 22.364C109.354 22.364 109.862 22.484 110.31 22.724C110.758 22.956 111.11 23.3 111.366 23.756C111.63 24.212 111.762 24.768 111.762 25.424V28.544C111.762 28.672 111.718 28.78 111.63 28.868C111.542 28.956 111.434 29 111.306 29ZM106.146 29C106.002 29 105.886 28.96 105.798 28.88C105.718 28.792 105.678 28.68 105.678 28.544V22.904C105.678 22.76 105.718 22.648 105.798 22.568C105.886 22.48 106.002 22.436 106.146 22.436C106.282 22.436 106.39 22.48 106.47 22.568C106.558 22.648 106.602 22.76 106.602 22.904V28.544C106.602 28.68 106.558 28.792 106.47 28.88C106.39 28.96 106.282 29 106.146 29ZM114.015 29.192C113.823 29.192 113.659 29.124 113.523 28.988C113.387 28.852 113.319 28.688 113.319 28.496C113.319 28.296 113.387 28.128 113.523 27.992C113.667 27.856 113.831 27.788 114.015 27.788C114.207 27.788 114.371 27.86 114.507 28.004C114.643 28.14 114.711 28.304 114.711 28.496C114.711 28.68 114.643 28.844 114.507 28.988C114.379 29.124 114.215 29.192 114.015 29.192ZM122.904 29.12C122.392 29.12 121.916 29.048 121.476 28.904C121.044 28.752 120.668 28.54 120.348 28.268C120.028 27.996 119.784 27.68 119.616 27.32C119.552 27.192 119.548 27.076 119.604 26.972C119.668 26.86 119.772 26.784 119.916 26.744C120.028 26.712 120.136 26.724 120.24 26.78C120.352 26.836 120.436 26.92 120.492 27.032C120.612 27.264 120.788 27.472 121.02 27.656C121.252 27.84 121.528 27.984 121.848 28.088C122.168 28.184 122.52 28.232 122.904 28.232C123.328 28.232 123.704 28.164 124.032 28.028C124.36 27.884 124.616 27.68 124.8 27.416C124.992 27.144 125.088 26.816 125.088 26.432C125.088 25.944 124.908 25.524 124.548 25.172C124.188 24.82 123.624 24.596 122.856 24.5C121.92 24.388 121.188 24.1 120.66 23.636C120.132 23.164 119.868 22.588 119.868 21.908C119.868 21.42 119.996 20.996 120.252 20.636C120.516 20.276 120.876 20 121.332 19.808C121.788 19.608 122.312 19.508 122.904 19.508C123.344 19.508 123.744 19.58 124.104 19.724C124.464 19.86 124.776 20.044 125.04 20.276C125.312 20.5 125.532 20.748 125.7 21.02C125.78 21.148 125.804 21.272 125.772 21.392C125.748 21.512 125.68 21.604 125.568 21.668C125.448 21.724 125.324 21.732 125.196 21.692C125.076 21.652 124.984 21.576 124.92 21.464C124.8 21.28 124.648 21.108 124.464 20.948C124.288 20.78 124.072 20.648 123.816 20.552C123.56 20.456 123.252 20.404 122.892 20.396C122.26 20.396 121.752 20.532 121.368 20.804C120.984 21.068 120.792 21.456 120.792 21.968C120.792 22.24 120.864 22.492 121.008 22.724C121.152 22.948 121.388 23.144 121.716 23.312C122.052 23.472 122.5 23.592 123.06 23.672C124.06 23.816 124.8 24.124 125.28 24.596C125.768 25.06 126.012 25.668 126.012 26.42C126.012 26.852 125.932 27.236 125.772 27.572C125.62 27.908 125.4 28.192 125.112 28.424C124.832 28.648 124.5 28.82 124.116 28.94C123.74 29.06 123.336 29.12 122.904 29.12ZM128.318 31.808C128.174 31.808 128.058 31.764 127.97 31.676C127.89 31.596 127.85 31.484 127.85 31.34V25.676C127.858 25.052 128.006 24.492 128.294 23.996C128.59 23.492 128.986 23.096 129.482 22.808C129.986 22.52 130.55 22.376 131.174 22.376C131.814 22.376 132.386 22.524 132.89 22.82C133.394 23.108 133.79 23.504 134.078 24.008C134.374 24.512 134.522 25.084 134.522 25.724C134.522 26.356 134.378 26.924 134.09 27.428C133.81 27.932 133.426 28.332 132.938 28.628C132.45 28.916 131.898 29.06 131.282 29.06C130.746 29.06 130.258 28.948 129.818 28.724C129.386 28.492 129.038 28.188 128.774 27.812V31.34C128.774 31.484 128.73 31.596 128.642 31.676C128.562 31.764 128.454 31.808 128.318 31.808ZM131.174 28.22C131.638 28.22 132.054 28.112 132.422 27.896C132.79 27.68 133.078 27.384 133.286 27.008C133.502 26.624 133.61 26.196 133.61 25.724C133.61 25.244 133.502 24.816 133.286 24.44C133.078 24.064 132.79 23.768 132.422 23.552C132.054 23.328 131.638 23.216 131.174 23.216C130.718 23.216 130.306 23.328 129.938 23.552C129.57 23.768 129.282 24.064 129.074 24.44C128.866 24.816 128.762 25.244 128.762 25.724C128.762 26.196 128.866 26.624 129.074 27.008C129.282 27.384 129.57 27.68 129.938 27.896C130.306 28.112 130.718 28.22 131.174 28.22ZM139.31 29.06C138.662 29.06 138.086 28.92 137.582 28.64C137.086 28.352 136.694 27.956 136.406 27.452C136.126 26.948 135.986 26.372 135.986 25.724C135.986 25.068 136.118 24.492 136.382 23.996C136.654 23.492 137.026 23.096 137.498 22.808C137.97 22.52 138.514 22.376 139.13 22.376C139.738 22.376 140.266 22.516 140.714 22.796C141.17 23.068 141.522 23.448 141.77 23.936C142.018 24.424 142.142 24.98 142.142 25.604C142.142 25.732 142.102 25.836 142.022 25.916C141.942 25.988 141.838 26.024 141.71 26.024H136.61V25.256H141.806L141.29 25.628C141.298 25.164 141.214 24.748 141.038 24.38C140.862 24.012 140.61 23.724 140.282 23.516C139.962 23.308 139.578 23.204 139.13 23.204C138.674 23.204 138.274 23.312 137.93 23.528C137.586 23.744 137.318 24.044 137.126 24.428C136.942 24.804 136.85 25.236 136.85 25.724C136.85 26.212 136.954 26.644 137.162 27.02C137.378 27.396 137.67 27.692 138.038 27.908C138.406 28.124 138.83 28.232 139.31 28.232C139.598 28.232 139.886 28.184 140.174 28.088C140.47 27.984 140.706 27.856 140.882 27.704C140.97 27.632 141.07 27.596 141.182 27.596C141.294 27.588 141.39 27.616 141.47 27.68C141.574 27.776 141.626 27.88 141.626 27.992C141.634 28.104 141.59 28.2 141.494 28.28C141.23 28.504 140.894 28.692 140.486 28.844C140.078 28.988 139.686 29.06 139.31 29.06ZM146.363 29.06C145.747 29.06 145.195 28.916 144.707 28.628C144.219 28.332 143.831 27.932 143.543 27.428C143.263 26.924 143.123 26.356 143.123 25.724C143.123 25.084 143.267 24.512 143.555 24.008C143.851 23.504 144.251 23.108 144.755 22.82C145.259 22.524 145.827 22.376 146.459 22.376C147.091 22.376 147.655 22.524 148.151 22.82C148.655 23.108 149.051 23.504 149.339 24.008C149.635 24.512 149.787 25.084 149.795 25.724L149.423 26.012C149.423 26.588 149.287 27.108 149.015 27.572C148.751 28.028 148.387 28.392 147.923 28.664C147.467 28.928 146.947 29.06 146.363 29.06ZM146.459 28.22C146.923 28.22 147.335 28.112 147.695 27.896C148.063 27.68 148.351 27.384 148.559 27.008C148.775 26.624 148.883 26.196 148.883 25.724C148.883 25.244 148.775 24.816 148.559 24.44C148.351 24.064 148.063 23.768 147.695 23.552C147.335 23.328 146.923 23.216 146.459 23.216C146.003 23.216 145.591 23.328 145.223 23.552C144.855 23.768 144.563 24.064 144.347 24.44C144.131 24.816 144.023 25.244 144.023 25.724C144.023 26.196 144.131 26.624 144.347 27.008C144.563 27.384 144.855 27.68 145.223 27.896C145.591 28.112 146.003 28.22 146.459 28.22ZM149.327 29C149.191 29 149.079 28.96 148.991 28.88C148.903 28.792 148.859 28.68 148.859 28.544V26.492L149.087 25.544L149.795 25.724V28.544C149.795 28.68 149.751 28.792 149.663 28.88C149.575 28.96 149.463 29 149.327 29ZM152.348 26.804L151.784 26.192L155.888 22.484C155.984 22.396 156.084 22.356 156.188 22.364C156.292 22.364 156.388 22.412 156.476 22.508C156.564 22.604 156.604 22.708 156.596 22.82C156.596 22.924 156.548 23.016 156.452 23.096L152.348 26.804ZM152.048 29C151.912 29 151.8 28.96 151.712 28.88C151.632 28.792 151.592 28.68 151.592 28.544V20.084C151.592 19.948 151.632 19.84 151.712 19.76C151.8 19.672 151.912 19.628 152.048 19.628C152.184 19.628 152.292 19.672 152.372 19.76C152.46 19.84 152.504 19.948 152.504 20.084V28.544C152.504 28.68 152.46 28.792 152.372 28.88C152.292 28.96 152.184 29 152.048 29ZM156.488 28.94C156.384 29.028 156.276 29.064 156.164 29.048C156.052 29.04 155.956 28.984 155.876 28.88L153.2 25.592L153.848 25.016L156.548 28.34C156.628 28.436 156.664 28.54 156.656 28.652C156.648 28.756 156.592 28.852 156.488 28.94ZM158.675 29.192C158.483 29.192 158.319 29.124 158.183 28.988C158.047 28.852 157.979 28.688 157.979 28.496C157.979 28.296 158.047 28.128 158.183 27.992C158.327 27.856 158.491 27.788 158.675 27.788C158.867 27.788 159.031 27.86 159.167 28.004C159.303 28.14 159.371 28.304 159.371 28.496C159.371 28.68 159.303 28.844 159.167 28.988C159.039 29.124 158.875 29.192 158.675 29.192Z" fill="#131315"/>
</svg>
