<svg width="28" height="29" viewBox="0 0 28 29" fill="none" xmlns="http://www.w3.org/2000/svg">
<path d="M0.5 10.7979L14.0356 16.1812L20.376 13.6177L13.8219 10.7979L14.2493 10.5415L21.0884 13.2759L27.5 10.7979L14.0356 5.5L0.5 10.7979Z" fill="#6612ED"/>
<path d="M8.33641 15.1558V19.7701C10.0937 21.6215 14.8335 24.2135 19.7348 19.7701V15.1558L14.0356 17.2921L8.33641 15.1558Z" fill="#6612ED"/>
<path d="M20.5897 13.6177V15.9249C20.3285 16.1527 19.9628 16.7794 20.5897 17.463L20.4472 23.2735C20.6135 23.4444 21.0172 23.6837 21.3021 23.2735L21.2309 17.463C21.4446 17.2066 21.7296 16.5401 21.1596 15.9249L21.0884 13.3614L20.5897 13.6177Z" fill="#6612ED"/>
</svg>
