<svg width="16" height="16" viewBox="0 0 16 16" fill="none" xmlns="http://www.w3.org/2000/svg">
<path d="M13 13L10.2727 10.2727M3 7.24242C3 7.79955 3.10973 8.35122 3.32294 8.86593C3.53614 9.38065 3.84863 9.84833 4.24258 10.2423C4.63652 10.6362 5.1042 10.9487 5.61892 11.1619C6.13363 11.3751 6.6853 11.4848 7.24242 11.4848C7.79955 11.4848 8.35122 11.3751 8.86593 11.1619C9.38065 10.9487 9.84833 10.6362 10.2423 10.2423C10.6362 9.84833 10.9487 9.38065 11.1619 8.86593C11.3751 8.35122 11.4848 7.79955 11.4848 7.24242C11.4848 6.6853 11.3751 6.13363 11.1619 5.61892C10.9487 5.1042 10.6362 4.63652 10.2423 4.24258C9.84833 3.84863 9.38065 3.53614 8.86593 3.32294C8.35122 3.10973 7.79955 3 7.24242 3C6.6853 3 6.13363 3.10973 5.61892 3.32294C5.1042 3.53614 4.63652 3.84863 4.24258 4.24258C3.84863 4.63652 3.53614 5.1042 3.32294 5.61892C3.10973 6.13363 3 6.6853 3 7.24242Z" stroke="#6612ED" stroke-linecap="round" stroke-linejoin="round"/>
</svg>
